<svg width="16" height="16" viewBox="0 0 16 16" fill="none" xmlns="http://www.w3.org/2000/svg">
<path d="M0 0H16V16H0V0Z" fill="white"/>
<path d="M3.00977 4.48926V3.84668C3.00977 3.65983 3.07129 3.50488 3.19434 3.38184C3.31738 3.25879 3.47233 3.19727 3.65918 3.19727H12.334C12.5208 3.19727 12.6758 3.25879 12.7988 3.38184C12.9219 3.50488 12.9834 3.65983 12.9834 3.84668V4.48926C12.9834 4.67611 12.9219 4.83105 12.7988 4.9541C12.6758 5.07259 12.5208 5.13184 12.334 5.13184H9.28516V12.3711C9.28516 12.5488 9.22135 12.6992 9.09375 12.8223C8.9707 12.9408 8.82031 13 8.64258 13H7.35059C7.17285 13 7.02018 12.9408 6.89258 12.8223C6.76953 12.6992 6.70801 12.5488 6.70801 12.3711V5.13184H3.65918C3.47233 5.13184 3.31738 5.07259 3.19434 4.9541C3.07129 4.83105 3.00977 4.67611 3.00977 4.48926Z" fill="#EB554D"/>
</svg>
