<svg width="23" height="23" viewBox="0 0 23 23" fill="none" xmlns="http://www.w3.org/2000/svg">
<g clip-path="url(#clip0_421_552)">
<path d="M21.0834 4.96425L10.1488 15.9084L6.0855 11.8451L7.43675 10.4938L10.1488 13.2059L19.7322 3.62258L21.0834 4.96425ZM11.5001 19.1667C7.27383 19.1667 3.83341 15.7263 3.83341 11.5001C3.83341 7.27383 7.27383 3.83341 11.5001 3.83341C13.0047 3.83341 14.4134 4.27425 15.6017 5.03133L16.9913 3.64175C15.4292 2.55883 13.5413 1.91675 11.5001 1.91675C6.21008 1.91675 1.91675 6.21008 1.91675 11.5001C1.91675 16.7901 6.21008 21.0834 11.5001 21.0834C13.158 21.0834 14.7201 20.6617 16.0809 19.9142L14.6434 18.4767C13.6851 18.9176 12.6213 19.1667 11.5001 19.1667ZM18.2084 14.3751H15.3334V16.2917H18.2084V19.1667H20.1251V16.2917H23.0001V14.3751H20.1251V11.5001H18.2084V14.3751Z" fill="#160302"/>
</g>
<defs>
<clipPath id="clip0_421_552">
<rect width="23" height="23" fill="white"/>
</clipPath>
</defs>
</svg>
