<svg width="23" height="23" viewBox="0 0 23 23" fill="none" xmlns="http://www.w3.org/2000/svg">
<path d="M6.5578 8.61786H15.9878V9.83657H6.5578V8.61786ZM6.5578 11.8677H8.6078V13.0863H6.5578V11.8677ZM6.5578 15.1176H10.6578V16.3363H6.5578V15.1176ZM12.8532 15.5712L20.1335 8.36812L20.9077 9.13412L13.6275 16.3372L12.8532 15.5712ZM10.5703 11.8205L14.3632 15.5734L13.5915 16.337L9.79848 12.5843L10.5703 11.8205ZM19.6778 12.274V19.18C19.6778 19.6268 19.3094 19.9924 18.8577 19.9924H3.68781C3.23603 19.9924 2.86781 19.6268 2.86781 19.18V5.36792C2.86781 4.92106 3.23603 4.55548 3.68781 4.55548H6.5578V6.18035H15.9878V4.5555H18.8577C19.3095 4.5555 19.6778 4.92108 19.6778 5.36794V6.99292H20.9077V4.96167C20.9077 4.06782 20.0598 3.3368 19.1566 3.3368H15.9878V1.71179H6.56499V3.33677H3.2802C2.37682 3.33677 1.63779 4.06789 1.63779 4.96176V19.5861C1.63779 20.4798 2.37444 21.2111 3.27786 21.2111H19.2678C20.1709 21.2111 20.9077 20.4799 20.9077 19.5861V12.274H19.6778ZM7.7878 2.9305H14.7578V4.96164H7.7878V2.9305Z" fill="#160302"/>
</svg>
